<svg width="25" height="25" viewBox="0 0 25 25" fill="none" xmlns="http://www.w3.org/2000/svg">
<path d="M13.8809 12.5008L24.7137 1.66788C25.0951 1.28648 25.0951 0.668125 24.7137 0.286779C24.3323 -0.0945676 23.7139 -0.0946164 23.3326 0.286779L12.4997 11.1197L1.66689 0.286779C1.2855 -0.0946164 0.667141 -0.0946164 0.285795 0.286779C-0.0955518 0.668174 -0.0956006 1.28653 0.285795 1.66788L11.1186 12.5007L0.285795 23.3336C-0.0956006 23.715 -0.0956006 24.3333 0.285795 24.7147C0.476468 24.9054 0.726418 25.0007 0.976369 25.0007C1.22632 25.0007 1.47622 24.9054 1.66694 24.7147L12.4997 13.8819L23.3326 24.7147C23.5232 24.9054 23.7732 25.0007 24.0231 25.0007C24.2731 25.0007 24.523 24.9054 24.7137 24.7147C25.0951 24.3333 25.0951 23.7149 24.7137 23.3336L13.8809 12.5008Z" fill="white"/>
</svg>
