<svg width="119" height="120" viewBox="0 0 119 120" fill="none" xmlns="http://www.w3.org/2000/svg">
<path d="M115.896 0H3.09911C1.38731 0 0 1.38731 0 3.09911V116.901C0 118.613 1.38731 120 3.09911 120H40.5964V119.973C42.2888 119.953 43.5855 119.006 43.6451 117.403C43.7989 113.236 43.6903 109.06 43.6903 105.031C40.6702 105.172 37.787 105.554 34.9363 105.389C28.6489 105.027 23.8175 102.344 21.3118 96.1878C19.8275 92.5404 17.591 89.4208 14.1078 87.3391C13.4574 86.95 12.8887 86.3771 12.3909 85.7953C11.7405 85.0365 11.8622 84.2569 12.8899 84.0486C13.9268 83.8378 15.0595 83.6906 16.082 83.8817C20.0977 84.6355 22.8747 87.1541 25.0003 90.504C29.2035 97.1312 35.6731 99.1599 42.9519 96.0995C43.3578 95.9288 43.8736 95.5151 43.9501 95.1376C44.537 92.2039 45.6334 89.529 47.8429 87.1839C45.3864 86.7288 43.111 86.394 40.8795 85.8766C34.4538 84.3898 28.6812 81.7149 24.4599 76.4023C21.0159 72.0686 19.441 66.9955 18.717 61.5962C17.5832 53.1395 18.598 45.2233 24.4057 38.4653C24.6991 38.1239 24.8582 37.4244 24.7276 36.9992C23.2731 32.2466 23.4954 27.5339 24.937 22.8343C25.6935 20.3662 25.9041 20.2433 28.4227 20.5872C28.5767 20.6079 28.7264 20.6466 28.8792 20.6726C33.9278 21.5079 38.2733 23.9525 42.5539 26.5771C43.1294 26.9301 44.0059 27.1499 44.6382 26.9961C54.8623 24.5151 65.0669 24.5254 75.2898 27.0051C75.8832 27.1486 76.6758 26.9443 77.2433 26.6471C79.5704 25.4304 81.7981 24.0161 84.1551 22.8626C86.8972 21.522 89.7855 20.5135 92.8949 20.569C93.4391 20.5794 94.281 21.0991 94.4631 21.5801C96.3339 26.537 96.7284 31.5883 95.2375 36.747C95.0785 37.2977 95.3151 38.0825 95.6112 38.6254C97.0826 41.3251 99.1369 43.8164 100.068 46.68C102.906 55.4082 101.872 64.0512 98.0084 72.2545C94.4684 79.7739 87.9032 83.5841 80.1317 85.5494C77.5071 86.2127 74.8181 86.616 71.9866 87.172C75.6971 91.0481 76.2789 95.7786 76.213 100.733C76.1445 105.844 76.1627 110.956 76.1599 116.068C76.1587 118.544 77.2395 119.911 79.1258 119.992C79.1245 119.999 118.994 119.999 118.994 119.999V3.09911C118.994 1.38731 117.607 0 115.896 0Z" fill="white"/>
</svg>
