<svg width="120" height="120" viewBox="0 0 120 120" fill="none" xmlns="http://www.w3.org/2000/svg">
<g clip-path="url(#clip0)">
<path d="M119.882 35.2803C119.601 28.9043 118.57 24.5208 117.093 20.7224C115.569 16.6906 113.225 13.0809 110.154 10.0801C107.153 7.03262 103.52 4.66461 99.5346 3.16468C95.7142 1.68765 91.3536 0.656561 84.9776 0.375439C78.5539 0.0705093 76.5146 0 60.2224 0C43.9302 0 41.8909 0.0705093 35.491 0.351631C29.1149 0.632753 24.7315 1.66475 20.934 3.14087C16.9013 4.66461 13.2916 7.00882 10.2908 10.0801C7.24331 13.0809 4.87621 16.7144 3.37537 20.6995C1.89834 24.5208 0.867254 28.8805 0.586133 35.2565C0.281203 41.6802 0.210693 43.7195 0.210693 60.0117C0.210693 76.304 0.281203 78.3432 0.562324 84.7431C0.843446 91.1192 1.87545 95.5027 3.35248 99.301C4.87621 103.333 7.24331 106.943 10.2908 109.943C13.2916 112.991 16.9251 115.359 20.9102 116.859C24.7315 118.336 29.0911 119.367 35.4681 119.648C41.8671 119.93 43.9073 120 60.1995 120C76.4917 120 78.531 119.93 84.9309 119.648C91.3069 119.367 95.6904 118.336 99.4879 116.859C107.552 113.741 113.929 107.365 117.047 99.301C118.523 95.4798 119.555 91.1192 119.836 84.7431C120.117 78.3432 120.187 76.304 120.187 60.0117C120.187 43.7195 120.164 41.6802 119.882 35.2803ZM109.076 84.2743C108.818 90.1348 107.834 93.2995 107.013 95.4093C104.997 100.637 100.848 104.786 95.6199 106.802C93.5101 107.623 90.3226 108.607 84.4849 108.865C78.1556 109.147 76.2573 109.216 60.2462 109.216C44.2351 109.216 42.313 109.147 36.0065 108.865C30.146 108.607 26.9814 107.623 24.8716 106.802C22.27 105.841 19.902 104.317 17.98 102.325C15.9874 100.379 14.4637 98.0346 13.5022 95.4331C12.6817 93.3233 11.6973 90.1348 11.44 84.2981C11.158 77.9687 11.0884 76.0695 11.0884 60.0584C11.0884 44.0473 11.158 42.1252 11.44 35.8197C11.6973 29.9592 12.6817 26.7945 13.5022 24.6847C14.4637 22.0823 15.9874 19.7152 18.0038 17.7922C19.9487 15.7996 22.2929 14.2759 24.8954 13.3153C27.0052 12.4948 30.1937 11.5104 36.0304 11.2522C42.3597 10.9711 44.2589 10.9006 60.2691 10.9006C76.304 10.9006 78.2023 10.9711 84.5087 11.2522C90.3693 11.5104 93.5339 12.4948 95.6437 13.3153C98.2452 14.2759 100.613 15.7996 102.535 17.7922C104.528 19.738 106.052 22.0823 107.013 24.6847C107.834 26.7945 108.818 29.9821 109.076 35.8197C109.357 42.149 109.428 44.0473 109.428 60.0584C109.428 76.0695 109.357 77.9449 109.076 84.2743Z" fill="white"/>
<path d="M60.2225 29.1854C43.2041 29.1854 29.3962 42.9924 29.3962 60.0117C29.3962 77.031 43.2041 90.838 60.2225 90.838C77.2418 90.838 91.0489 77.031 91.0489 60.0117C91.0489 42.9924 77.2418 29.1854 60.2225 29.1854ZM60.2225 80.008C49.1819 80.008 40.2262 71.0533 40.2262 60.0117C40.2262 48.9701 49.1819 40.0154 60.2225 40.0154C71.2641 40.0154 80.2188 48.9701 80.2188 60.0117C80.2188 71.0533 71.2641 80.008 60.2225 80.008Z" fill="white"/>
<path d="M99.4651 27.9666C99.4651 31.9407 96.2427 35.1631 92.2676 35.1631C88.2935 35.1631 85.0711 31.9407 85.0711 27.9666C85.0711 23.9915 88.2935 20.77 92.2676 20.77C96.2427 20.77 99.4651 23.9915 99.4651 27.9666Z" fill="white"/>
</g>
<defs>
<clipPath id="clip0">
<rect width="120" height="120" fill="white"/>
</clipPath>
</defs>
</svg>
