<svg width="120" height="120" viewBox="0 0 120 120" fill="none" xmlns="http://www.w3.org/2000/svg">
<path d="M111.346 0H8.65448C3.87451 0 0 3.87451 0 8.65448V111.346C0 116.125 3.87451 120 8.65448 120H111.346C116.125 120 120 116.125 120 111.346V8.65448C120 3.87451 116.125 0 111.346 0V0ZM42.5647 90.7031H27.952V46.7404H42.5647V90.7031ZM35.2588 40.7373H35.1636C30.26 40.7373 27.0886 37.3618 27.0886 33.143C27.0886 28.829 30.3571 25.5469 35.3558 25.5469C40.3546 25.5469 43.4308 28.829 43.526 33.143C43.526 37.3618 40.3546 40.7373 35.2588 40.7373ZM95.2551 90.7031H80.6442V67.1841C80.6442 61.2735 78.5284 57.2424 73.2413 57.2424C69.2047 57.2424 66.8005 59.9615 65.744 62.5864C65.3577 63.5257 65.2634 64.8386 65.2634 66.1523V90.7031H50.6516C50.6516 90.7031 50.8429 50.8649 50.6516 46.7404H65.2634V52.9651C67.2052 49.9695 70.6796 45.7086 78.4323 45.7086C88.0463 45.7086 95.2551 51.9919 95.2551 65.495V90.7031Z" fill="white"/>
</svg>
